<svg id="Layer_1" data-name="Layer 1" xmlns="http://www.w3.org/2000/svg" viewBox="0 0 811.15 15.48"><defs><style>.cls-1{fill:#010101;}</style></defs><path class="cls-1" d="M718.6,7.69c7,4.49,17-4,27.19.52l-.88.77c-1.38-.24-2.79-.49-4.18-.64-7.15-.81-16.93,11-25.07,1.85a12,12,0,0,0,3.16.44Z"/><path class="cls-1" d="M681,3.5c3.17,3.36,8.5,6.13,13,5.94s10.57-3.29,13.4-7c.19-.23.36-.48.53-.72,2.44,2.43,7.4,5.72,10.72,5.94l.22,2.94a12,12,0,0,1-3.16-.44,2.53,2.53,0,0,1-1.14.34c-3.17.14-6.25-2.63-8.45-4.77a12.33,12.33,0,0,1-2.12,2c-3.06,2.32-6.53,4.27-10.35,3.56l-.35,0c-4.67.62-8.13-4.19-12.94-3.86-5.31.36-9.34,5.53-14.47,6.21-5.59.73-8.17-4.58-13.14-4.91-6.12-.4-11.11,5.06-17.18,4.6-5.41-.42-11.32-6.45-16-5.76a26,26,0,0,1-3.06.16l-.16-1.59c3.48-.91,5.67-1.55,8.9.54,4.28,2.77,7.72,5.14,13,3.94,4.91-1.11,8.78-4.94,14-4.85,9.49.16,11.13,8.68,22.23,2.33C676.68,6.86,679.2,5.64,681,3.5Z"/><path class="cls-1" d="M810.27,10.36a1,1,0,0,1-.2.15c-.36-.07-.72-.12-1.08-.2-2.79-.59-5.13-3-8-3.19-6.35-.36-11.31,6.09-17.86,5.55-5.18-.44-7.62-6.28-13.47-6-9.2.5-15.79,13.29-24.8,2.28l.88-.77c10.22,5,13.7-4.41,23.1-4.18,5.19.12,9.12,5.17,13.93,5,8,1.18,13-6.14,21.73-3.23l1.51.49a6.68,6.68,0,0,1,4.21,4Z"/><path class="cls-1" d="M453.51,10.8a4.24,4.24,0,0,0,1.33.49c2.61.43,17.14-6.12,19.57-7.94.19.24.37.49.57.73,2.06,2.53,6.37,6.4,9.53,6.61,7,1.48,13.78-5.31,21-4.9,5.48.3,9.13,6.37,14.77,5.66,4.86,1.21,9.29-5.42,14.26-6,5.73-.74,8.9,5.25,13.69,5.5h.92c6.07.54,10.52-5.83,16.51-5.12,3.62.42,6.17,4.57,9.67,5.27.3.06.6.1.9.15,4.59,1.5,9.9-5.19,14.57-5.73,5.63-.64,9.52,3.81,14.68,4.95,3.76.84,7.81-2,10.78-4.19l.16,1.59c-2.24,2.86-6.11,5.57-9.63,5.82-6,.43-10.34-6.54-16.25-6-5.07.43-9.49,7.32-14.64,6.15-3.09.17-8.46-4-10.72-6.26a6.78,6.78,0,0,1-1-1.31c-2.61,2.53-11.78,8.23-15.13,8.05-.32,0-.65-.07-1-.1-4.45.17-7.38-4.53-12-4.69-6.6-.22-12.17,7.67-18.92,4.45-4-1.88-7.15-6.05-11.69-6.13C498,7.64,492.39,14.86,485,14.53c-5.2-.23-7.15-7-12.45-6.88-7.49.23-14.06,10.56-21.35,5.08l-.05-1Z"/><path class="cls-1" d="M272.67,9.25c2.27,1.12,4.44.54,6.7-.32,3.46-1.32,7.12-3.77,10.8-4.09,5.91-.51,10.95,3.39,16.67,3.77,7.92.52,13.64-5.7,21.7-1.63,6.5,3.27,9.21,4.85,16.33,2.12A29.25,29.25,0,0,0,354,4c2.17,2.35,5,4.93,8.22,5.09a3.81,3.81,0,0,0,1.32-.2c5.14.86,9.37-4.07,14.9-3.45,8.87,1,14.32,9.81,23.41,2.9a24.55,24.55,0,0,0,4.18-4.16c3,2.73,10.55,6.09,14.56,5.64a6,6,0,0,0,1.55-.43,6.46,6.46,0,0,0,2.47.26C429.88,8.9,434.4,4,440,5.17c4.44,1,8.74,7.33,13.5,5.63l-2.38.89.05,1c-4.56,1.13-7.62-5.22-12.2-5.36-6.91-.21-12.33,6.63-19.24,7.09-5.27.35-10.17-4.51-13.8-8.22A49.1,49.1,0,0,1,402.16,10a15.55,15.55,0,0,1-12.29,4,4.14,4.14,0,0,1-.6.09C386,14.1,378,8.54,375.6,6.16a7.33,7.33,0,0,1-1.34,1.22c-2.72,2-8.19,4.58-11.46,4C358.92,11,356,9,353.41,5.94a11,11,0,0,1-1.82,1.72c-3.47,2.5-9.37,5.33-13.53,4.41-5.07,1.41-9-4.12-14-4.37h-.8c-5.31-.07-9.73,3.72-15.05,3.73-6.54,0-12.23-4.67-19-3.44-6.2,1.12-10.06,5.77-17,4.86-5.79-.76-8.81-6.55-15.59-5.95-6.22.56-10.71,6.84-16.84,6.74-4.84-.08-8.4-5.16-13.57-4.79-5.33.38-9.76,5-15.21,5.21-4.35.13-9.47-3.4-12.58-6.51l.61-.46c3.48,2,7.17,5,11.24,4.06,4.47,1,11.06-2.68,14.76-5.25a9.25,9.25,0,0,0,1.61-1.52c2.63,1.82,10.49,5.86,13.56,5.27,5.46.2,10-4.31,15.4-4.6C261.43,4.74,267.75,10.07,272.67,9.25Z"/><path class="cls-1" d="M1.29,13.07a6.37,6.37,0,0,0,2.69.1c6.62-3.06,8.43-11.09,17.2-7.31,5.22,2.25,10.41,7.59,16.31,4.92,3.3-1.5,8-6.7,9.95-10C49.81,3.67,54.7,8.68,58,10.17c4.86,6.72,14.22-3.86,19.39-5.26,7.21-2,11.57,6,18.27,5.18,5.56-.69,10-8.31,16.08-6.19,1.72.6,2.19,1.5,3.12,3.12a7.84,7.84,0,0,0,2.72,3.23c7.19.87,12.9-2.27,19.65-4.17,12.21-3.45,8,1.95,14.18,5.91,3.19.28,5.78-.68,8.78-1.69l.7.51c-2.53,2.13-6.57,4.42-9.89,3.7-3.58-.78-4.28-5.87-7.87-6.15-7-.54-24,12.91-28.94,3a36.21,36.21,0,0,1-1.5-3.83c-1.52-1.18-2.29-1.53-4.2-1.29C104,6.82,101,12,96.74,13a12.91,12.91,0,0,1-2.48.28c-5.79.1-9.45-5.73-15.07-5.49-7.8.33-13.46,11.48-22,5.63l-1.08-1.95c-2.6-.55-4.33-3.81-6.87-4.91C46,5.14,38.65,13.28,35,14.72c-7.63,3.07-9.59-4-15.69-6.47-6.82-2.8-8.23,4.28-13.5,6.48a7.57,7.57,0,0,1-5.1.18,1,1,0,0,1-.41-1.62h0A1,1,0,0,1,1.29,13.07Z"/><path class="cls-1" d="M169.72,6c1.55,1.53,3.61,2.25,5.53,3.07,10,4.28,16.49-4.45,23.78-1.94l-.61.46-.7.27c-6.55,2.64-11.53,9.22-18.95,5.72-6.82-3.21-8.41-4.62-16.27-2.89a4.06,4.06,0,0,1-1.66.16l-.7-.51C163.38,9.15,167,8.28,169.72,6Z"/></svg>