<svg id="Layer_1" data-name="Layer 1" xmlns="http://www.w3.org/2000/svg" viewBox="0 0 20 1649.6"><defs><style>.cls-1{fill:#010101;}</style></defs><path class="cls-1" d="M15.15,237.81l2.61-.17c.9,15.52-10.13,22.74-6.93,35.36A36.35,36.35,0,0,1,8,277l-.41-1.06C1.56,260.71,15.81,254,15.15,237.81Z"/><path class="cls-1" d="M11.63,1372.37c3,4.14,5.42,7,4.79,12.63s-4.56,12-6.92,16.92c.08.22.16.45.25.66,1.31,3.37,4,6.48,4.92,9.88,2.67,9.61-3.54,16.94.72,28.37-1.78,5.12-4.12,12.87-7.68,16.71l.36,1c2.77,7.13,10.82,14.75,7.49,23.13a57.47,57.47,0,0,1-6.79,11.83c.13.24.25.47.39.71,3.09,5.59,8.77,8.95,7.13,16.26-1.82,8.19-9.25,15.28-6.41,23.75a22.26,22.26,0,0,0,2.67,2.4l-1.18,2.17C9.05,1538,7.86,1536,6.55,1534c-1.66-8.36,4.14-15.12,6.47-22.68,2.16-7-3.84-10.8-6.31-16.74l-.3-.78c3-6.11,6.14-12.17,8.39-18.65-2.69-1.73-6.88-7-8-10.1-2.92-8,3.89-17.79,7-24.79-5.92-8.11-2.17-22.12-5.74-31.81-.89-2.42-1.68-4.87-2.51-7.31,4.44-4.59,7.66-14.1,9.7-20.29a12.41,12.41,0,0,1-1.32-.51c-2.36-1.28-4.07-4.35-5.14-6.83Z"/><path class="cls-1" d="M10.74,40.2,12.9,44c-2.21,4.17-3.71,6.89-2.32,11.84,3,10.61,11.22,17.56,5.71,29.64-2.27,5-5.38,9.33-7.46,14.51,3.39,7.2,7.59,14.65,9.32,22.56l-7,15.33c-.7,9.22,5.65,17.21,4.71,26.82-.5,5.06-2.68,10.68-4.17,15.53,3.64,7.75,8.38,15.19,5.69,24.25-1.7,5.72-6.13,11-9.09,16.06,3.25,5.44,7.09,11.1,9.45,17.08l-2.61.17c-2.17-6-6.33-11.71-9.32-17.33,3.05-7.66,7-14.64,9.57-22.55-2.06-4.08-5.48-9.42-5.89-14.07-.68-7.74,3.63-15.67,3.38-23.73S7,146.36,8.69,137.64c1.47-5.45,4.05-10.79,6.19-16-2.34-6.4-6.82-12-8.7-18.53-2.45-8.5,3.22-12.69,6.4-19.4,4.71-10-3.19-18.55-5.61-27.55C5.3,49.94,7.88,45.31,10.74,40.2Z"/><path class="cls-1" d="M12.42,15.17C15.12,28.41,22.56,28.1,12.9,44L10.74,40.2C16,24.56,1.64,16.14,6,3.74,6.89,1,8,.84,10.22-.12A4.83,4.83,0,0,1,12.7,1.64a5.94,5.94,0,0,1,1,4.64l-1.23,6.58A6.19,6.19,0,0,0,12.42,15.17Z"/><path class="cls-1" d="M16.36,1649.23a1.34,1.34,0,0,1-1.62.18c-6.69-4.07.85-8.7-.71-14.56-1-3.87-4.3-6.81-5.3-10.82-1.74-7,3.63-11.25,6.62-16.61l.4-.72a11.61,11.61,0,0,1-5.66-5.33c-3.31-6.78,3.5-17,5.05-23.84.08-.33.15-.67.22-1-16.11-7.89.2-21.76-1.8-32.66-.27-1.51-1.57-3.67-2.19-5.13l1.18-2.17c2.53,4,4.44,6.64,3.5,11.76-1.17,6.31-4.77,12-6.21,18.37a44.2,44.2,0,0,0,3.68,5.46,14.85,14.85,0,0,1,3,10.51c-.45,3.67-3.59,9.77-5.92,12.52.12.26.24.51.37.76,3,5.92,8.78,9.14,8.06,16.76-1.33,3.36-5,7.38-8.1,8.8,1.52,4.31,4.56,8.67,5.64,12.91,1.23,4.84-4.45,9.5-.3,12.81a1.33,1.33,0,0,1,.11,2Z"/><path class="cls-1" d="M8,436.49l2,3.61c-3,16.54,11.67,10.19-.28,38.1,3.76,4.88,7.27,9.49,6.66,16.3-.63,7.07-4.84,13-7.4,19.37,4.45,6.16,8.29,10.64,7.36,19-.78,6.95-4.81,13.92-6.8,20.6,3.1,3.84,6.93,7.94,6.65,13.47-.46,8.85-12.16,12.08-4.91,23a24.94,24.94,0,0,0,3.11,3.46L19,598.12c-2.71,8.06-6.37,16.48-8,24.86,2.33,3.26,4.89,6.2,5.29,10.45,0,.34.09.68.11,1,.34,4.84-2.08,10.5-3.48,15,3.1,7.41,4.55,12.65,1.84,20.72-1.9,5.65-4.79,10.95-7,16.46,4.62,8.47,8.68,15.22,6.45,25.5a93.2,93.2,0,0,1-3.31,10.49c3.29,4.71,6.12,8.6,5.22,14.89-.94,6.59-5.61,12.71-8,18.79,4.74,5.74,8.45,9.8,7.92,18.06-.46,7.23-4.09,14.47-5.53,21.58,4.3,5.32,7.47,8.78,7,16.34-.6,9.55-6.2,19-7.92,28.62l5.55,5.81C16.73,863.81,11,876.6,8.29,893c3,3.61,6,7.25,9.27,10.57C14.64,909.75,11.22,916,9,922.5c3.13,8.45,8.74,17.57,5,26.81-1.79,4.43-4.66,8.26-6.73,12.52,4.48,5.57,8.61,9.75,8.3,17.67-.41,10.35-15.41,18.4-7.45,28,3.2,3.85,7.23,6.81,10.31,10.79-2.13,8.82-5.65,15.46-10.37,22.94,4.11,4,7.79,7.7,8,14.15.24,8.36-5,15.78-6.88,23.66,4.14,7.13,9,14,7,23-1.31,5.92-5.47,11.88-8.46,17,3.61,6.74,12,18.73,9.84,26.93-2,7.43-13.84,12.7-7.1,28.42,3.92,9.14,8.52,9.3,5.34,20.9-1.5,5.49-4.15,10.83-6.44,16,4.07,6.89,7.9,12,6.14,20.55-1.29,6.35-4.7,11.93-6.11,18.28,2.94,4.77,9.18,12.89,8.36,18.83-1,7.33-5.54,13.17-6,21.37-.2,3.62,2.35,6.73,3.81,9.8,3.95,8.3-5.07,24.49-7.92,32.62,3,5.68,7.43,12.66,8.33,19.14-2.17,5.41-6.73,13.33-5.66,19.19l1.45,1.35-2.85,1.14a14,14,0,0,1-2-2.49c-1.14-6.61,5.07-14.29,8-19.88-2.93-3.38-6.67-7.08-8.6-11.27-5-10.92,6.61-26.5,9.86-37.23-2.12-2.71-4.61-5.57-6-8.81-3.5-8.27,2.76-19,5.65-26.64-1.77-3.6-4.18-6.79-6-10.39-5.64-11.41.6-15.64,2.9-25.59,1.78-7.72-2.59-13.7-6.11-19.9,2.66-7.63,5.24-15.2,7.3-23.06-2.31-7.49-6.14-14.71-9-22,2.15-7.75,6.17-15.37,9.39-22.67-1.31-6.79-5-12.58-6.93-19.17-2.36-8.29,4.24-16.92,7.72-23.9-2.12-6.41-5.31-12.53-8.12-18.62,1-8.45,4.79-16.24,5.33-24.53.49-7.47-2.52-10.89-6.75-16.17a159,159,0,0,0,9.84-21.8c-4.56-4.11-11.65-9.88-13.43-16.29-1.69-6.06,5.2-11.35,7.7-16.38,7.38-14.79-1.14-13.17-3.95-23,.1-8,4.8-13.7,8.9-19.85-2.56-4.93-6.11-10.6-7.32-16.12-2-9.18,2.42-15.51,6.65-22.9A92.61,92.61,0,0,1,5.78,893c-.85-17.42,7.12-26.48,6.49-39.27-.28-5.55-2.72-7.83-6.18-11.45,1.44-9.8,4.69-17.61,7.24-27,2.37-8.69-1.71-10.09-4.75-17-2.75-6.29,2-15.36,3.68-21.56C14.85,767,9.64,766.42,6.32,759c-2.48-5.52,5.46-18.88,7.36-24.66A113,113,0,0,0,8.57,723.6c7.43-26.12-4.21-24.73-2.29-39.88.88-7,5.54-14.87,8-21.53-1.32-4.27-3-8.48-4.52-12.69l3.78-15.26a37.48,37.48,0,0,1-4.31-6.9c-3.63-8.79,4.28-21,6.91-29.36-4-2.88-8.87-6.22-10.12-11.61-1.61-7,4.41-15.28,7.61-20.91a71.82,71.82,0,0,0-5-8.72c-.31-10.14,2-18.11,4.73-27.63-15.22-26.88-.25-14.84-1-37-.12-3.11-.55-5.47-2.72-7.61a19.71,19.71,0,0,1-3-3.81c-1.17-8.34,3.24-15.67,6-23.14a42,42,0,0,1-5-7.22C5.34,445.74,6.69,441.11,8,436.49Z"/><path class="cls-1" d="M10.83,273a31.84,31.84,0,0,1,7.29,20.73c-.37,9.52-4.41,16.56-6.69,25.4l-2.27-.92c.05-.13.09-.25.13-.37,5.2-16.26,5.33-25.1-1.29-40.85A36.35,36.35,0,0,0,10.83,273Z"/><path class="cls-1" d="M9.16,318.21l2.27.92c.21,5.3,4.66,10.23,7.16,14.7q-3.53,9.75-7.43,19.32c3.66,5.48,7,9.58,5.82,16.79-3.05,17.82-9.39,16.87,1,35.44.14,13.84-2.72,22.26-8,34.72l-2-3.61c4.88-20.16,6.29-25.23-2.51-44.6,1.91-8.56,6.82-16.22,9.83-24.41a144.69,144.69,0,0,1-9.8-15.19c1.65-6.73,5.38-13.17,8.35-19.33C11.4,328,9.31,324,9.16,318.21Z"/></svg>