<svg id="Layer_1" data-name="Layer 1" xmlns="http://www.w3.org/2000/svg" viewBox="0 0 793.12 17.89"><defs><style>.cls-1{fill:#010101;}</style></defs><path class="cls-1" d="M468.1,5.9c5.58,2.32,11.76,5.7,17.91,4.44,2.67-.55,3.83-1.75,5.24-4.19A9.85,9.85,0,0,1,494,2.69c6.12-1.4,10.05,5.33,15.58,7.19,2.4-.45,2.76-1.3,4.43-3.14l1.91.83c-1.92,2.58-3.74,5.48-7.09,5.68-4.52.27-9.9-4.56-13.62-7.14-3.22,3.83-6.3,8.15-11.53,8.2-4.5,0-11.28-5.24-15.23-4.06-.9.27-2.51,1.89-3.4,2.49a6.7,6.7,0,0,0,.54-2.41,10.72,10.72,0,0,1-2.32.9c-.17,0-.36.06-.53.09C464.47,9.45,466.31,7.69,468.1,5.9Z"/><path class="cls-1" d="M.79,7.56a1.25,1.25,0,0,1,.5-2,8.53,8.53,0,0,1,5.9.32c5.57,2.07,13.24,10.63,19.33,7.68C31.78,11,30.26,6.39,38,8.48c4.71,1.27,9,5,13.06,7.87q4.36-4.52,8.62-9.17c4.7,1.24,13.26,5.86,17.7,3.16,2-1.19,3.76-3.41,5.37-5.09Q89,8.08,95.26,11.08C98,8.22,100.55,5,104.69,5.14c2.86.08,5.83,2.1,8.26,3.61l-1.68.49-.63,1.57-7.89-3.57c-1.76,2.26-3.57,4.95-6.27,5.88-4.56,1.59-9-1.65-12.91-3.83-1.84,2-4,4.55-6.53,5.47-5,1.8-12.38-3.4-16.9-5.59-2.62,3.25-5.68,7.85-9.74,8.74-5.35,1.17-11.82-4.85-16-7.86C17,23.76,16.69,7.51,1.73,7.94a1.28,1.28,0,0,1-.94-.38Z"/><path class="cls-1" d="M222.49,3.61c3.28,1.18,9.34,4.48,12.59,4.08,2.37-1.55,3.79-3,6.68-2.16,3.85,1.09,7.67,3.25,11.72,2.73a11.07,11.07,0,0,0,1.78-4.69c1.17-1,1.39-1.28,2.93-1.09,4.79.6,9,11.19,14.37,6.25,1.28-1.18,2.16-3.6,2.92-5.21,1.4-.75,1.69-1,3.27-.43,4.08,1.48,8,5.34,11.16,8.39,2.71-2.48,5.76-6,9.58-5.84,3.11.16,6.21,3.07,8.63,5,3.8-2.95,7.38-6.2,12.37-5.26,3.87.72,7.54,4.34,10.6,6.84,2.18-3,4.41-7.19,8.17-7.83,4.41-.74,10.69,4.81,14.51,7.12,3.62-3.53,7-7.63,12.22-7.44,3.71.14,7.58,3.13,10.75,5q5.11-3.45,10.3-6.8c4.46,2.48,8.68,5.52,13.19,7.84,2.88-2.6,5.83-6.14,9.89-5.62,4.29.56,8.7,5.17,12.54,7.35,2.42-2.81,4.63-6.23,8.42-6.54,4.26-.35,9.63,3.32,13.46,5.3l6.54-5a61.33,61.33,0,0,1,11.67,5.67c.17,0,.36-.05.53-.09a10.72,10.72,0,0,0,2.32-.9,6.7,6.7,0,0,1-.54,2.41,5.33,5.33,0,0,1-.63.32c-3.7,1.43-9.72-3.19-13-5.12l-6.66,5.14q-7.14-3.67-14.47-6.9c-1.9,2.34-4.15,5.6-7,6.38-4.62,1.25-10.85-4.51-14.56-7.09-2,2.12-4.34,5-7.15,5.78-5.12,1.34-10.56-3.44-14.77-6.2-2.42,1.9-5,4.14-7.72,5.43-4.46,2.09-6.4-.73-10.48-2.18-6.7-2.37-7.68,1.79-13,4.24S346.34,8.91,341.9,7s-6.06,5.61-9.86,7.39c-6.9.11-7.5-4.26-12.85-6.23-3.34-1.23-8.71,3.45-11.33,5.29L298.6,6.87c-2.37,2.28-5.34,5.67-8.64,6-4.17.38-8.92-4.88-12.1-7.49A35.55,35.55,0,0,1,272,10.7c-2,1.43-3.12,1.49-5.37.92-2.72-2.78-4.42-4.81-8.35-4.72a17.7,17.7,0,0,1-3.18,3.4c-4.74-.18-9.47-1-14.21-1.1-3.27,0-7.07.72-10.26.3-2.77-.36-5.73-1.67-8.37-2.65-1.45,2-3.1,4.6-5.29,5.59-6,2.68-14.49-3.63-19.85-6.33A56.45,56.45,0,0,1,192.81,10c-5.94,4.73-13.5-1.55-19.82-2.71a23.67,23.67,0,0,1-2.09,1.82c-4,2.89-13.6-2.1-18.1-3.32-1.92,2.12-4.1,5.28-6.57,6.57-5.71,3-13.37-3.23-18.73-5.49-2,1.81-4.51,4.27-7,5.34-3.58,1.55-6.59,0-9.9-1.44l.63-1.57L113,8.75c2.59,1.22,4.85,2.64,7.65,1.3,2.45-1.17,4.78-3.24,7-4.93,5.49,1.61,10.58,4.13,15.89,6.27C146.5,8.7,151,2.75,155.1,3.17s10.56,5.49,14.35,4.51c1.14-1.2,1.87-2.57,3.58-2.53,5,.1,11.29,4.09,16.29,5.48,2.86-2.79,5.22-5.86,9.35-5.7,5.38.2,11.17,4.4,16.5,6A75,75,0,0,1,222.49,3.61Z"/><path class="cls-1" d="M792.42.94A1.19,1.19,0,0,1,792.61,3c-3.19,2.07-4.32,7.07-7.22,7.89-4.12,1.17-12.17-4.66-15.75-6.7-.48.82-1,1.63-1.45,2.46-1.26,2.19-2.39,4.43-4.32,6-5.24,4.31-9.33-5.45-16.4-6.44-1.92.82-1.64.8-2.46,2.74-1,2.37-1.32,3.14-3.64,4.08-4.79-.76-8.06-3.7-11.94-6.62-.93,1.49-1.87,3-2.89,4.39a7,7,0,0,1-5.32,3.29c-2.91-.77-4.68-4-7-5.95a8,8,0,0,0-6.89-1.92c-2.08.37-3,1.39-4.24,3.19-.22.33-.83,1.3-1.09,1.62a3.45,3.45,0,0,1-2.67,1.7c-3.47.08-6.91-4.06-9.33-6.41-3,2-6,3.71-9.09,5.49q-5.39-2.77-10.71-5.67l-6.93,6.63Q657.2,9.19,651,5.88c-1.47,2-3,4.27-5.18,5.34-5.17,2.56-12.07-2.21-16.88-4.37l-.41.43-.69.68c-1.77,1.79-3.46,3.81-5.88,4.51-5.27,1.52-10.66-2.66-15.11-5.28a57.08,57.08,0,0,1-8.61,5.86c-4.62-1.85-9.1-4.73-13.55-7a94.62,94.62,0,0,1-8.9,8.57c-4-1.8-7.78-4.4-11.56-6.64-4.87,3.06-8.88,7.38-13.89,10.36-4.61-2.1-8.91-5.41-13.16-8.25L530,13.16c-3-2-5.9-5.06-9.18-6.34-2.13-.83-3-.23-4.87.75L514,6.74c2.31-1.37,4.18-2.27,6.84-1.54,3.11.86,6.23,3.42,8.93,5.26l7.92-4.38a111.73,111.73,0,0,1,13.61,8.82c4-3.57,9-9.45,14.61-8.9,3.4.34,7.07,3.75,9.8,5.87,3.07-3.22,6.45-7.94,11.13-7.64,3.8.24,8.22,3.42,11.56,5.28a68.07,68.07,0,0,1,8-6.17,138.87,138.87,0,0,1,14.55,7.84c2.6-2.16,5.23-4.58,8-6.48,4.41,1.75,11.88,6.84,16.45,4.75,3.49-1.59,3.93-5.71,8.56-4.2,3.07,1,6.11,3.28,8.78,5.17,2.46-2.66,4.65-5.7,8.41-5.69,3.34,0,6.82,2.8,9.56,4.7,3.17-1.72,6.31-3.54,9.52-5.17l9.13,6.56c2.77-3.34,5.2-6.69,9.26-8.16,2.8.51,3.31,1.6,5.21,3.83,2.69,3.17,4.72,4.08,8.66,4.3,4.38-2.24,2.42-9,9.13-6.12,3.64,1.57,7.25,4.9,10.45,7.37,1.05-2.89,2.09-7.28,5-8.53a3.19,3.19,0,0,1,3.18.3c3.93,2.46,6,7.15,11.21,6.37a5.57,5.57,0,0,0,4.22-2.7,30.11,30.11,0,0,0,1.92-4.34A5.52,5.52,0,0,1,773,2.65C776.91,4,780.9,6.85,784.56,9c1.77-3.44,3.35-6.78,7-8.09a1.19,1.19,0,0,1,.89,0Z"/></svg>