<svg id="Layer_1" data-name="Layer 1" xmlns="http://www.w3.org/2000/svg" viewBox="0 0 20 1649.71"><defs><style>.cls-1{fill:#010101;}</style></defs><path class="cls-1" d="M1.44,868.57c1.44-.85,1.23-.4,1.89-2.29.28.38.54.78.83,1.16a9.78,9.78,0,0,0,3.76,2.81c2.69,1.43,4.4,2.85,5.41,6,1.74,5.41-.89,11.42-3.25,16.11-1.74,3.42-3.58,6.79-5.49,10.1C9.4,907.31,14.75,912,16.42,919.2c-.54,5.8-5.82,9.3-6.89,15.38,0,.3-.12.6-.16.9-1.5,10.42,8.24,3.63-4.23,24.81-.39,1.19-1.33,2.79-.66,3.92,3.34,5.64,10.79,3.82,9.65,13.7-.81,7-6,12.34-10,17.59,3.85,2.32,8.28,4.83,9.55,9.83a12.07,12.07,0,0,1-1.72,9c-1.52,2.4-3.93,4.49-5.79,6.61l-1.81-3c2.22-2.21,5.21-4.86,6.33-7.95,2.32-6.39-7.28-7.18-9.28-12.34-3.27-8.41,6.43-14.17,9-21-.3-7.85-5.66-5.57-8.78-10.94-.47-3.08.46-4.84,1.65-7.6a141.25,141.25,0,0,0,6.64-14l-6.55-7.26Q7.59,927,12,917.37c-2.47-3.24-5.69-6-7.59-9.74-6.55-12.69,3.88-15.94,5.89-25.9.58-2.83-.52-4.84-1.89-7.13-2.1-1.26-5-2.63-6.34-4.88C1.83,869.35,1.64,869,1.44,868.57Z"/><path class="cls-1" d="M8.87,1645.13c2.44-2,3.76-7.38,4.75-10.25-2.24-1.62-4.85-5.74-5.91-8.43-3-7.69,3.71-17.08,6.23-24.06l.32-.92a4.18,4.18,0,0,1-.58-.46c-16.2-17.55.54-22.3-1.31-38.76-.31-2.74-1.31-4-3.34-5.59a17.39,17.39,0,0,1-3.83-3.92c-.86-3.83-.1-6.33.85-10l2.15,2c-.27,2.91-1.09,5.68.79,8.17,3.35,4.43,7.09,4.39,7.22,11.36.14,7.6-6.59,13.08-6.84,20.17-.26,7.38,7.74,10.64,8.86,17.13s-6.11,12.26-7.4,18.38c-2.76,13.11,14.8,10.37-1.22,29.51l-.13,0h0a1.57,1.57,0,0,1-1.29-1.62l.09-1.62A1.59,1.59,0,0,1,8.87,1645.13Z"/><path class="cls-1" d="M5.84.06A2.39,2.39,0,0,1,8.45,3.55C7.1,6,5.93,8.64,5.89,11.13c.17.24.33.49.49.73,1.53,2.37,2.59,4.41,2.2,7.39C7.21,29.93,2,32,9.21,44.13c.48.8,1,1.57,1.5,2.35,1.87,2.93,2.14,4.46,1.43,8-1.53,7.58-5.62,15-9,21.74C8.21,84.1,15,91,13.32,101.67c-1.21,7.68-5.86,15.51-9.48,22.14C7.7,129.35,16.23,138.45,14.92,146c-.39,2.23-2.23,4-3.56,5.63a20.89,20.89,0,0,0-5.1,16.12c1.56,21.33,21.32,7.54-2.35,45.78l-1.32-2.85c22.72-36.11-1.72-26.17-.1-46.24.68-8.37,9-13.4,8.82-21.87-.09-5.41-4.1-8.18-7.09-11.87-7.55-9.33,4.08-20.93,5.83-30.69C12.11,88.45,2,86.66,1.21,77.13c-.63-8,6.54-15.09,7.93-23,1.51-8.56-5.9-13.47-6.82-21.42-.61-5.32,2.9-9.86,3.19-15.21-.68-1.24-1.39-2.49-2-3.8-1.26-2.85-1.09-4.46-.1-7.36a6,6,0,0,0,.63-3.25c0-.07,0-.14,0-.21A2.36,2.36,0,0,1,5.84.06Z"/><path class="cls-1" d="M3.19,1198.93l2.14-.67c2.86,2.73,6.76,5.72,7.53,10,1,5.53-5.93,10.64-1.58,20.47,1.55,3.5,4.26,6.59,6.2,9.86-2,4.54-4.34,10.79-8.07,14l-3.1.33c2.57-4,4.64-8.61,6.83-12.88-2.73-3.14-6.41-7.07-7.72-11.21-2.4-7.56,1.9-14.54,4.92-21.06A85.77,85.77,0,0,1,3.19,1198.93Z"/><path class="cls-1" d="M6.31,1252.9l3.1-.33c-1,2.12-2.17,3.44-1.27,5.8,2.71,7.13,9.66,10.58,6.91,19.68-2.39,7.91-7.63,14.31-10,22.55,3.75,4.94,9.73,11.28,9,18.31-.8,7.43-9.15,12.12-3.64,20.95,2.66,4.27,6.19,5.67,6.26,11.55l-2.4,1-.71-2.59c-1.95-3.07-4.61-5.56-6.43-8.77-4.89-8.63,2.2-20.39,4.17-29.28-2.66-1.86-5.71-3.82-7.57-6.67-8-12.26,7-20.21,8.42-31.47.86-6.92-2.88-8.25-5.69-13.42C5,1257.46,5.69,1255.74,6.31,1252.9Z"/><path class="cls-1" d="M14,541.12c-.34,7.63-5.83,13.37-5.94,20.21-.36,22.31,15.13,9.68,1.57,47.2,2.05,3.72,4,7.51,6.17,11.18-3.25,6.75-6.81,12.78-4.67,20.7,1.1,4.08,3.45,8,5.4,11.64-3.93,10.84-9.41,20.81-9.64,32.67L6,687.32a18,18,0,0,1-2.13-4.59c-2.48-9,5.43-22.35,9-30.24A71.61,71.61,0,0,1,8,643.58c-3.64-8.84-.82-15.65,2.17-24L4.84,608.89c1-3.18,2.23-6.29,3.39-9.43,2.46-6.63,4.91-15.17,1.81-22-1.33-2.94-3.49-5.4-4.57-8.49-3-8.63,2.15-17.81,5.56-25.35C11.42,542.17,12.8,541.82,14,541.12Z"/><path class="cls-1" d="M6,687.32l.87-2.6c3.12,2.43,6.92,4.82,7.51,9.34.85,6.48-4.48,14.32-6.56,20.26,4.34,4,9.1,7.36,9.83,13.93-2.23,7.56-10.4,14.86-5.7,23.76,1.1,2.09,3.59,3.48,5.43,4.68,1.83,4.15.59,9-.76,13.17-1.7,5.25-4.9,9.77-6.77,14.92,3.37,8.13,6.2,13.7,3,22.61-2.1,5.85-5.46,11.09-7.62,17,4.33,3.47,7.94,6,8.65,12.33,1.15,10.1-6.67,20.85-10.52,29.61-.66,1.89-.45,1.44-1.89,2.29-.77-12,10.33-19.71,9.61-30.48-.42-6.26-4.36-9.28-8.38-13.14,1.75-7.85,6.3-14.15,8.18-21.8,1.82-7.41-.76-12.36-3.93-18.67,2.71-7.29,6.38-14.28,9.7-21.27-19.67-26-5.15-16.57-3.93-34.18.4-5.69-3.82-6.82-6.56-10.61-6-8.3,4.27-15.41,5-23.41C10.05,691.2,8.56,690,6,687.32Z"/><path class="cls-1" d="M13.58,1349.8l.71,2.59,2.4-1c-.81,5.52-5.11,13.38-9.14,16.86,3.6,7.65,9.48,14.24,7,23.64-1.32,5.06-5,10.46-7.89,14.67l.27.64c3.26,7.22,12.86,13.35,9.88,22.79-1.09,3.46-7.64,11.18-10.7,12.83,3.31,6.32,8.79,13.77,6.41,21.66S3.75,1475.92,7.58,1486c3,8,10.32,9.7,7,19.79a31,31,0,0,1-2.53,6.07c1.22,5.07,2.55,10,4.25,14.87a58,58,0,0,1-8.06,18.11l-2.15-2a59.63,59.63,0,0,0,6.72-16.64c-5.16-10.16-3.76-17.91-2.44-28.8a4.29,4.29,0,0,1-.62-.14c-2.4-.9-6-4.88-7.07-7.37-4.61-11,4.8-23.92,8-34,.11-.33.21-.67.31-1-3.39-1.81-6.52-7.43-8.37-10.94a101.54,101.54,0,0,0,12.2-21c-3.21-1.54-8.25-6.72-10-10-5.06-9.51,4.78-20.93,7.16-29.8l.29-1.08a21.55,21.55,0,0,1-5.28-6.72c-4-8.52,3.92-17,6.42-24.64C13.41,1350.35,13.49,1350.07,13.58,1349.8Z"/><path class="cls-1" d="M4.39,1017.9l1.81,3c-.59,2.76-1.45,4.74.08,7.36,3,5.14,8.73,8.65,7.67,15.71-.84,5.57-5.26,10.38-8.63,14.48,3.73,3.52,8.91,7.48,9.41,13.28.59,6.91-4.7,13.41-8.17,18.68,3.7,3.18,7.82,6.1,8.31,11.67.6,6.85-5.91,14.31-9.48,19.41,3.25,2.92,8.85,6.76,9.49,11.62.68,5.2-5.29,11.32-7.9,15.26,3.85,6.38,12.87,17.54,11.36,25.63-1.6,8.59-10.39,15.76-13,24.25l-2.14.67c-.26-7.38,2.71-10.54,6.24-16.26,10.1-16.34-5.55-18.17-7.39-31.58C.78,1141.84,6.48,1142,10.1,1136s-5.76-8.46-6.77-13.42c-.92-4.54,4.38-10.24,6.31-14.06,5.31-10.57-5.93-10.26-7.55-17.38-1.44-6.27,4.85-14.72,7.86-19.77-2.84-3.13-7.46-6.78-8.55-11.16-1.84-7.47,5.24-8.26,7.89-13.42,4.52-8.82-5.92-12.75-7.31-19.51C1.35,1024.16,3,1020.47,4.39,1017.9Z"/><path class="cls-1" d="M14.66,278.78c-3.38-4.34-9.06-9.4-11.42-14.27-4-8.27,3.74-16.81,6-24.21,3.06-9.92-4.11-12.31-7.2-19.83-1.42-3.47-.57-6.43.53-9.83l1.32,2.85c-.25,3.22,0,5.47,1.86,8.1,3.56,5.09,8,7.5,7.76,14.72-.33,8.36-4.92,16.88-8.13,24.3C8.46,264.33,19,275.13,19,280.07c0,1.38,0,.9-.87,2.12-3.51,4.81-6.56,11.34-6,17.73.62,7.63,12.53,7.26,4.7,19.75-3.74,6-9.14,10-7.81,18.12a21.78,21.78,0,0,0,.91,3.83c2.64,2.31,5.32,4.54,5.86,8.42.87,6.31-4.94,12.67-7.95,17.57.86,6,1.54,12.17,3.13,18l-4.64,13.2c3,5.2,6.29,10.23,9.33,15.42-4.16,10.3-8.46,20.66-11.35,31.47C7.5,451,11.11,456.3,10,463.06,8.47,471.78,3.3,481,8.06,489.78c3.91,7.21,9.2,7.64,7.33,17.72-1.56,8.34-5.86,16.29-9.53,23.7a88.92,88.92,0,0,1,8.1,9.92c-1.16.7-2.54,1-2.93,2.47-1.87-4.32-5.66-8.44-8.46-12.15,2.53-7.31,7-14.42,8.75-21.88,2.41-10.29-3-13.48-7.1-21.61C.43,480.52,4,472.92,6,465.7c2.16-7.61-1.22-13.17-4.46-19.63,2.36-11.2,6.66-21.59,10.57-32.22-2.46-3.64-6-8-7.42-12.26-2-6.06.76-11.23,3-16.71L2.82,375c2.33-8,10.81-15.55,10.28-23.8-.26-4-3.3-6.3-5.87-8.79a8.3,8.3,0,0,1-1.34-3.5c-1.6-10.54,5-18.83,10.2-26.91-3.65-3-8-6-9.11-11.18C5.43,293.29,11.26,285,14.66,278.78Z"/></svg>