<svg id="Layer_1" data-name="Layer 1" xmlns="http://www.w3.org/2000/svg" viewBox="0 0 300 265.09"><defs><style>.cls-1{fill:#c5948f;}</style></defs><path class="cls-1" d="M150.28,65.07c10.14-26.78,29.29-44.24,53.64-56.35,11.28-5.61,23.4-8.42,36-6.59,13.52,2,24.46,9.16,33.65,19.23,14.87,16.4,23.36,35.67,24.55,58.1a134.41,134.41,0,0,1-2.31,35.18c-4.48,21.27-16.63,36.93-34.55,48.38a132.5,132.5,0,0,1-25.9,12.53,263.09,263.09,0,0,0-27.86,11.93,113,113,0,0,0-25.82,18.6,29.85,29.85,0,0,0-7.3,9.74A116.2,116.2,0,0,0,164,256.47c0,.5.19,1,.15,1.52-.29,3.86-3.9,7.46-7.52,7.07-4.07-.45-4.41-3.86-4.28-6.95.38-9.63-1.9-18.8-4.19-28C144.47,215.17,135.82,204,123,196c-15.29-9.61-31.8-16.73-47.66-25.18-25-13.31-46.64-30.54-63-54A57.46,57.46,0,0,1,1.62,82.2a81.88,81.88,0,0,1,9-36.2C21.24,25.29,39.42,15.87,61,12.24c30.88-5.17,55.42,6.07,74.2,31,3.82,5.07,6.79,10.75,10.3,16.1C146.75,61.17,147.2,63.63,150.28,65.07Zm-71.87-.94-1.54-.64L69.09,76.56c-8.86,14.87-16.94,30.22-27.48,44-5.94,7.75-5.94,7.75,1.62,14.1a2.25,2.25,0,0,0,2.81.59C54.34,110.55,67.63,87.94,78.41,64.13ZM212.94,171.4c6.4-1.92,13.4-2.72,13.49-12,0-3.52,2.61-6.59,4.08-9.83,7.22-15.82,16.76-30.38,24.18-46.09a108.88,108.88,0,0,0,7.76-20.38C245.45,112.21,231.35,143,212.94,171.4Zm44.45-46.56a163.59,163.59,0,0,0,17-26.11c2.84-5.44,5.55-10.88,10.59-14.68A4.21,4.21,0,0,0,287,80.24c-.46-5.89-.76-11.83-3.9-18.52-7.69,22.29-15.75,43.09-25.78,63.12ZM97.27,78c-1.2,1-1.74,1.19-2,1.6-12,21.62-22.76,44-36.21,64.79-1.2,1.88-1,3.37.83,4.53,1.42.88,2.52,2.58,5,2C72.86,125.74,87.73,103.58,97.27,78ZM252.19,28.88a638.09,638.09,0,0,1-30.28,86.18c15-27,26.88-55.09,30.26-86.18ZM170.81,57.36c-9.28,13-28.72,59.06-29.61,69.31A606,606,0,0,0,170.81,57.36ZM106.32,174.58c2-12.69,6.06-24.72,10.55-38.33-3.55,2.79-4.37,5.3-5.63,7.44-4.08,6.8-7.91,13.71-12,20.48-3.79,6.31-3.87,6.28,2.85,9.65C103.18,174.38,104.23,175.33,106.32,174.58ZM88.37,24.26c-3.81-.36-7.86-4-10,1.86-4,11-9.24,21.43-14,32.11-.46,1.07-2,2.27-.12,4.08C71.79,49.22,79.89,36.79,88.37,24.26ZM264,28.54c-1,12.49-4.32,24.16-6.79,36,2.89-2.21,3.9-5.44,5.32-8.33,2.26-4.58,4.08-9.38,6.59-13.82,3.1-5.53,3.33-5.44-.47-10.28A8,8,0,0,0,264,28.54Zm-56.64.17c-10,20.92-16.05,43.35-24.3,64.95C193.66,73,201.12,51.07,207.34,28.71ZM47.87,65.41c-9.43,14-15.66,29.89-24,44.66-1,1.76-.62,3.47,2.08,4.53C33.08,98.16,40.45,81.83,47.87,65.41Zm87.91,98.27,1.24.94a384.74,384.74,0,0,0,24.85-54.18Zm-58.57-4.6c5.44,4.43,5.32,4.4,7.25-1.16,1.57-4.58,3.37-9.09,5.11-13.59,1.59-4.08,3.87-8,4-12.75ZM42.11,48.49l.87.42L58.72,25.43l-1-1.21c-2.44,1.48-6,.65-7.47,4C47.38,34.9,44.82,41.72,42.11,48.49Zm80.68-2c-4.33,8-7.53,17.44-7.46,23,3.25-4.85,6.09-9,8.86-13.22C127.55,51.23,127.52,51.2,122.79,46.52ZM250.64,155.09a21.71,21.71,0,0,0,8.68-4.58c4.28-3.22,4.24-3.27,1.55-9.37ZM99.42,46.67l.89.47c2.72-3.78,5.56-7.58,8.39-11.32,1.36-1.82.31-2.72-1.1-3.59s-2.72-1.35-3.54.94C102.56,37.68,101,42.17,99.42,46.67ZM21.33,73.16C15,81,13.18,86.09,15,91.55,17.26,84.91,19.24,79,21.33,73.16Zm121,106c-2.84,3.52-5.66,7.07-8.52,10.57-.89,1.09-1.36,2-.07,3.2s2.42.55,3-.66c1.88-4.3,5-8.05,5.5-13.14ZM192.56,32.4c1.36-2.91,2.86-5.3,3.23-8.43-5,2.31-5,2.31-3.23,8.45Zm-42.13,168c-1.86,1.54-5.19,2.14-4.54,5.64,0,.21.37.52.5.49C149.66,206,149.28,202.66,150.43,200.37ZM22.9,48.6a11.85,11.85,0,0,0-3.79,7.29C21.58,53.27,22.79,51.26,22.9,48.6Zm144.44,52.14c-1.21.85-3.31,1.87-2,4.07C166,103.45,166.74,102.1,167.34,100.74ZM137.21,69.59c-.21-.39-.52-1.14-.6-1.11-1.1.35-1,1.55-1.48,2.35s-.18,1.08.45.93A2.24,2.24,0,0,0,137.21,69.59Zm80.94-53.51a16.33,16.33,0,0,0-.3,2.42c0,.32.34.65.53,1a17.36,17.36,0,0,0,.35-2.16C218.74,17,218.38,16.63,218.15,16.08ZM156,231a16.59,16.59,0,0,0,1.46-1.88c.36-.66.51-1.5-.51-1.69a1.17,1.17,0,0,0-1.43.86,1,1,0,0,0,0,.35A10.7,10.7,0,0,0,156,231Z"/></svg>