<svg id="Layer_1" data-name="Layer 1" xmlns="http://www.w3.org/2000/svg" viewBox="0 0 200 72.43"><defs><style>.cls-1{fill:#010101;stroke:#010101;stroke-miterlimit:10;stroke-width:0.5px;}</style></defs><path class="cls-1" d="M100.72,39.56C89.15,49.72,65.92,64,50.58,65.69c-10.64,1.19-23.79-.1-32.38-7.1-.32-.26-.64-.54-.95-.82s-.61-.57-.9-.86-.59-.6-.87-.91-.55-.63-.81-1-.53-.66-.77-1-.49-.68-.72-1-.46-.7-.67-1.06-.42-.72-.62-1.09-.38-.75-.56-1.12-.34-.76-.5-1.15-.31-.78-.45-1.17-.27-.79-.39-1.19-.23-.81-.33-1.21-.19-.82-.27-1.23-.15-.82-.21-1.23-.11-.83-.15-1.25a25.65,25.65,0,0,1,5.46-18.65c6.59-7.9,16.07-10.45,25.86-11.35l.22,0C60.92,9,85.64,25.82,100.74,37.68c14.53-12.15,34.87-25,54.21-26.45,10.18-.75,21.37,1.54,29.23,8.37a25,25,0,0,1,8.46,17.51c0,.41,0,.83.05,1.25s0,.83,0,1.25,0,.83-.07,1.24-.08.83-.14,1.25-.12.82-.19,1.23-.16.82-.26,1.23-.2.81-.31,1.21-.24.8-.37,1.19-.28.79-.43,1.18-.32.77-.49,1.15-.35.76-.54,1.13-.39.74-.59,1.1-.43.72-.65,1.07l-.7,1c-.24.34-.49.67-.75,1s-.52.65-.79,1c-6.35,7.21-15.88,9.58-25.08,10.18C138.11,67.94,118.24,52.62,100.72,39.56Zm57.15-27.62c-21.41,1.49-39.67,13.7-56.07,26.62,11.27,9.27,23.62,17.76,37.13,23.39,11.91,4,27.27,5,38.8-.73a24.33,24.33,0,0,0,12.83-14.31A27.47,27.47,0,0,0,189,26.69c-3.22-6.4-9.87-10.78-16.53-12.95A38.56,38.56,0,0,0,157.87,11.94Zm-120.56.3c-8.47.9-17.06,4.24-22.52,11.07C10.71,28.43,9.23,35.82,10,42.23a24.23,24.23,0,0,0,8.89,16C27.21,64.75,40.8,66.17,51,64.79c5.77-.77,11.17-3,16.47-5.31,11.84-5.43,22-12.67,32.08-20.87C83.69,25.69,59.2,9.47,37.53,12.2A1.43,1.43,0,0,0,37.31,12.24Z"/></svg>